<?xml version="1.0" encoding="UTF-8"?><svg xmlns="http://www.w3.org/2000/svg" xmlns:xlink="http://www.w3.org/1999/xlink" width="375" zoomAndPan="magnify" viewBox="0 0 375 374.999991" height="374.999991" preserveAspectRatio="xMidYMid meet" version="1.0"><defs><clipPath id="clip-0"><path d="M 89.628906 107.390625 L 285.378906 107.390625 L 285.378906 267.140625 L 89.628906 267.140625 Z M 89.628906 107.390625 " clip-rule="nonzero"/></clipPath></defs><path fill="rgb(29.40979%, 22.349548%, 70.979309%)" d="M 187.5 37.5 C 104.65625 37.5 37.5 104.65625 37.5 187.5 C 37.5 270.34375 104.65625 337.5 187.5 337.5 C 270.34375 337.5 337.5 270.34375 337.5 187.5 C 337.5 104.65625 270.34375 37.5 187.5 37.5 Z M 187.5 37.5 " fill-opacity="1" fill-rule="nonzero"/><g clip-path="url(#clip-0)"><path fill="rgb(100%, 85.099792%, 23.139954%)" d="M 125.21875 197.738281 L 125.21875 233.238281 L 187.503906 267.140625 L 249.785156 233.238281 L 249.785156 197.738281 L 187.503906 231.640625 Z M 187.503906 107.390625 L 89.632812 160.640625 L 187.503906 213.890625 L 267.578125 170.3125 L 267.578125 231.640625 L 285.375 231.640625 L 285.375 160.640625 Z M 187.503906 107.390625 " fill-opacity="1" fill-rule="nonzero"/></g></svg>